<svg width="176" height="50" viewBox="0 0 176 60" fill="none" xmlns="http://www.w3.org/2000/svg">
<path d="M10.6286 26.6429C12.3838 23.1647 12.7739 21.6188 14.9679 15.2903C16.0405 12.2951 17.6006 8.67191 18.5757 6.98109C21.4523 2.05355 24.4751 0.797514 26.5229 0.169495H21.1598C19.2583 0.604277 16.6743 1.37722 13.554 5.29027C8.62968 11.4255 7.75208 21.4738 0.0487545 26.9811V38.9618C3.31536 37.5125 7.21577 33.4062 10.6286 26.6429ZM7.84959 0.169495H0.0487545V5.38689C1.80394 3.06805 5.07054 0.507659 7.84959 0.169495ZM23.4513 41.4255C22.8662 47.0777 19.5996 55.9183 15.5529 60.1212H29.3994C27.2054 56.1115 24.3289 48.4787 23.4513 41.4255ZM17.1618 0.169495H11.9938C5.21681 1.37722 1.17012 10.1695 0.0487545 11.5705V19.9763C4.48548 16.1115 5.75312 10.4594 8.97096 6.15983C12.8226 1.03906 15.0166 0.555968 17.1618 0.169495ZM36.0301 4.51732C32.3735 10.0729 32.471 19.783 36.2251 26.7395C36.7127 27.6091 37.2002 28.4787 37.7853 29.2999V2.34341C37.1027 3.01974 36.5177 3.74437 36.0301 4.51732ZM37.7853 40.6526V60.0246C37.249 59.3482 34.9088 57.2226 32.3735 52.6816C26.4741 42.1985 23.8901 31.2323 23.6463 20.7492C23.4025 21.7637 23.2075 22.9231 22.915 24.1792C21.6473 30.6526 20.5747 39.5415 15.8942 47.2226C12.3838 53.068 8.19088 56.2565 5.46059 57.8507C2.09648 59.783 0 60.1695 0 60.1695V47.4642C5.1193 45.3386 10.1411 39.6864 12.9201 33.5028C15.8942 26.8362 16.6255 20.2661 19.3558 12.6816C22.1836 4.61394 25.7428 1.90863 30.082 0.169495H37.7366V0.266113C34.9088 1.7637 32.1785 3.50283 30.3745 11.2323C28.2293 20.556 31.1058 32.9714 37.7853 40.6526Z" fill="#D96207"/>
<path d="M110.933 28.2631H106.651C106.454 28.2631 106.306 28.1139 106.306 27.915V24.5331C106.306 24.3342 106.454 24.185 106.651 24.185H110.884C112.557 24.185 113.493 24.8812 113.493 26.224C113.542 27.5668 112.656 28.2631 110.933 28.2631ZM106.356 17.7197C106.356 17.5208 106.503 17.3716 106.7 17.3716H110.638C112.114 17.3716 112.902 17.9684 112.902 19.162C112.902 20.2561 112.114 21.0021 110.786 21.0021H106.7C106.503 21.0021 106.356 20.8529 106.356 20.6539V17.7197ZM114.575 22.2951L115.018 22.0465C116.052 21.4994 116.692 20.2063 116.692 18.7641C116.692 15.8299 114.477 13.94 110.589 13.94H103.599C102.713 13.94 102.418 14.3876 102.418 15.8796V29.7053C102.418 31.1973 102.713 31.6449 103.599 31.6449H107.734H109.014H110.835C115.314 31.6449 117.332 29.2577 117.332 26.3732C117.381 24.4336 116.249 22.8919 114.575 22.2951Z" fill="black"/>
<path d="M148.158 14.9236V31.1862C148.158 32.4296 147.728 32.6285 146.104 32.6285H129.332C127.659 32.6285 127.277 32.3798 127.277 31.1862V14.9236H131.052V28.6996C131.052 28.8985 131.195 29.0477 131.386 29.0477H135.496C135.687 29.0477 135.83 28.8985 135.83 28.6996V15.769H139.605V28.6996C139.605 28.8985 139.748 29.0477 139.939 29.0477H144.049C144.24 29.0477 144.383 28.8985 144.383 28.6996V14.9236H148.158Z" fill="black"/>
<path d="M92.4746 28.2535V31.6449H80.6762C79.9241 31.6449 79.5481 31.3152 79.5481 29.6195V16.949C79.5481 15.3475 80.0182 14.9236 80.6762 14.9236H92.4276V18.3149H83.5436C83.3556 18.3149 83.2145 18.4563 83.2145 18.6447V21.094C83.2145 21.2824 83.3556 21.4237 83.5436 21.4237H91.4875V24.7209H83.5436C83.3556 24.7209 83.2145 24.8622 83.2145 25.0506V27.9238C83.2145 28.1122 83.3556 28.2535 83.5436 28.2535H92.4746Z" fill="black"/>
<path d="M164.633 25.2861L165.711 21.3295L166.445 18.5976C166.494 18.4092 166.69 18.2678 166.886 18.2678H168.013C168.209 18.2678 168.405 18.4092 168.454 18.5976L170.267 25.2861H164.633ZM175.167 28.913L171.639 16.0069C171.443 15.3475 170.855 14.9236 170.169 14.9236H164.829C164.143 14.9236 163.506 15.3946 163.359 16.0069L162.477 19.257L160.909 25.0506L160.174 27.7354L159.096 31.6449H162.967L163.898 28.3006H171.247L171.345 28.7246L172.129 31.6449H176L175.167 28.913Z" fill="black"/>
<path d="M65.8099 31.6449L65.0214 28.7246L62.2122 18.5976C62.163 18.4092 61.9658 18.2678 61.7687 18.2678H60.6352C60.4381 18.2678 60.2409 18.4092 60.1917 18.5976L59.4524 21.3295L56.594 31.6449H52.7007L53.7849 27.7354L54.5241 25.0506L56.1012 19.257L56.9883 16.0069C57.1854 15.3475 57.7768 14.9236 58.4668 14.9236H63.8386C64.5285 14.9236 65.1692 15.3946 65.317 16.0069L68.8654 28.913L69.6046 31.6449H65.8099Z" fill="black"/>
<path d="M72.3492 44.4318H71.6096L72.645 38.8287L68.4046 44.4318H67.6157L68.8977 37.5466H69.6373L68.6019 43.1497L72.7929 37.5466H73.5818L72.3492 44.4318Z" fill="black"/>
<path d="M76.9724 38.5761C77.4967 38.5761 77.8899 38.76 78.1958 39.1277C78.4579 39.4954 78.589 39.909 78.5453 40.4606H77.8899V40.3687C77.9336 39.6333 77.5404 39.1736 76.9287 39.1736H76.8413C76.0548 39.1736 75.4868 39.8631 75.3121 40.8283L75.2684 41.242C75.0936 42.2531 75.4432 42.8966 76.2296 42.8966H76.317C76.9724 42.8966 77.5404 42.391 77.7151 41.6556V41.6097H78.3705C78.2394 42.1153 77.9773 42.5749 77.5841 42.9426C77.1908 43.3103 76.7539 43.4482 76.2296 43.4482H76.1422C74.8752 43.4482 74.4382 42.2991 74.613 41.1041L74.6567 40.8743C74.7441 40.2308 75.0062 39.6792 75.3995 39.2196C75.7927 38.76 76.317 38.5302 76.885 38.5302H76.9724V38.5761Z" fill="black"/>
<path d="M80.5213 41.2256L80.1828 43.4482H79.5481L80.3097 38.5302H80.9444L80.6482 40.5163L82.8062 38.5302H83.5255L81.029 40.8473L82.8062 43.4482H82.1292L80.5213 41.2256Z" fill="black"/>
<path d="M89.4915 38.5302L86.5366 43.3903C86.1145 44.128 85.6455 44.4318 84.9888 44.4318C84.8012 44.4318 84.6605 44.3884 84.5198 44.345L84.5667 43.9111C85.0357 44.0846 85.4109 43.9545 85.7862 43.4771L86.0676 43.0432L85.1295 38.5302H85.8331L86.5835 42.3489L88.8349 38.5302H89.4915Z" fill="black"/>
<path d="M91.9048 38.5761C92.4235 38.5761 92.8124 38.76 93.1149 39.1277C93.3742 39.4954 93.5039 39.909 93.4607 40.4606H92.8124V40.3687C92.8556 39.6333 92.4667 39.1736 91.8616 39.1736H91.732C90.9541 39.1736 90.3922 39.8631 90.2194 40.8283L90.1762 41.242C90.0033 42.2531 90.349 42.8966 91.1269 42.8966H91.2134C91.8616 42.8966 92.4234 42.391 92.5963 41.6556V41.6097H93.2446C93.1149 42.1153 92.8556 42.5749 92.4667 42.9426C92.0777 43.3103 91.6455 43.4482 91.1269 43.4482H91.0405C89.7872 43.4482 89.355 42.2991 89.5279 41.1041L89.5711 40.8743C89.6575 40.2308 89.9168 39.6792 90.3058 39.2196C90.6948 38.76 91.2134 38.5302 91.7752 38.5302H91.9048V38.5761Z" fill="black"/>
<path d="M97.8537 38.5761C98.378 38.5761 98.7713 38.76 99.0771 39.1277C99.3393 39.4954 99.4703 39.909 99.4266 40.4606H98.7713V40.3687C98.815 39.6333 98.4217 39.1736 97.81 39.1736H97.7227C96.9362 39.1736 96.3682 39.8631 96.1934 40.8283L96.1497 41.242C95.975 42.2531 96.3245 42.8966 97.111 42.8966H97.1984C97.8537 42.8966 98.4217 42.391 98.5965 41.6556V41.6097H99.2519C99.1208 42.1153 98.8586 42.5749 98.4654 42.9426C98.0722 43.3103 97.6353 43.4482 97.111 43.4482H97.0236C95.7565 43.4482 95.3196 42.2991 95.4944 41.1041L95.5381 40.8743C95.6254 40.2308 95.8876 39.6792 96.2808 39.2196C96.674 38.76 97.1984 38.5302 97.7663 38.5302H97.8537V38.5761Z" fill="black"/>
<path d="M102.722 39.0976L101.974 43.4482H101.272L102.02 39.0976H100.429L100.523 38.5302H104.407L104.313 39.0976H102.722Z" fill="black"/>
<path d="M105.157 38.5302H107.032C107.99 38.5302 108.49 39.003 108.365 39.807V39.9015C108.282 40.469 107.99 40.8 107.449 40.9419C107.949 41.0837 108.199 41.5093 108.115 42.0768L108.074 42.2187C107.949 43.0226 107.407 43.4482 106.407 43.4482H104.407L105.157 38.5302ZM105.365 41.2256L105.073 43.0226H106.282C106.948 43.0226 107.365 42.7389 107.449 42.2187L107.49 42.0768C107.574 41.5093 107.282 41.2729 106.615 41.2729H105.365V41.2256ZM105.698 39.003L105.448 40.7527H106.573C107.24 40.7527 107.615 40.469 107.699 39.9015V39.8542C107.782 39.2868 107.49 39.0503 106.823 39.0503H105.698V39.003Z" fill="black"/>
<path d="M111.957 43.4482C110.678 43.4482 110.209 42.2991 110.422 41.1041L110.465 40.8743C110.55 40.2308 110.806 39.6792 111.189 39.2196C111.573 38.76 112.084 38.5302 112.681 38.5302H112.766C114.045 38.5302 114.514 39.6792 114.301 40.8743L114.258 41.1041C114.173 41.7476 113.917 42.2991 113.491 42.7587C113.107 43.2184 112.596 43.4022 111.999 43.4022H111.957V43.4482ZM112.084 42.8966C112.894 42.8966 113.448 42.2072 113.619 41.242L113.661 40.8743C113.832 39.8631 113.491 39.2196 112.681 39.2196H112.596C111.829 39.2196 111.232 39.909 111.062 40.8743L111.019 41.242C110.848 42.2531 111.189 42.8966 111.999 42.8966H112.084Z" fill="black"/>
<path d="M123.299 38.5302L120.344 43.3903C119.922 44.128 119.453 44.4318 118.797 44.4318C118.609 44.4318 118.468 44.3884 118.328 44.345L118.375 43.9111C118.844 44.0846 119.219 43.9545 119.594 43.4771L119.875 43.0432L118.937 38.5302H119.641L120.391 42.3489L122.643 38.5302H123.299Z" fill="black"/>
<path d="M127.36 42.552H128.271L127.907 44.4318H127.224L127.497 43.0766H123.262L122.988 44.4318H122.305L122.67 42.552H123.398C123.717 42.0711 123.99 41.5465 124.172 40.9345C124.4 40.3225 124.628 39.5356 124.856 38.5302H128.089L127.36 42.552ZM127.315 39.011H125.448C125.265 39.8853 125.038 40.5848 124.856 41.1094C124.673 41.634 124.4 42.1148 124.127 42.552H126.677L127.315 39.011Z" fill="black"/>
<path d="M133.377 43.4482H132.66L133.377 39.5232L129.983 43.4482H129.266L130.126 38.5302H130.843L130.126 42.4551L133.52 38.5302H134.237L133.377 43.4482Z" fill="black"/>
<path d="M135.982 38.5302H137.857C138.815 38.5302 139.315 39.003 139.19 39.807V39.9015C139.107 40.469 138.815 40.8 138.273 40.9419C138.773 41.0837 139.023 41.5093 138.94 42.0768L138.898 42.2187C138.773 43.0226 138.232 43.4482 137.232 43.4482H135.232L135.982 38.5302ZM136.19 41.2256L135.898 43.0226H137.107C137.773 43.0226 138.19 42.7389 138.273 42.2187L138.315 42.0768C138.398 41.5093 138.107 41.2729 137.44 41.2729H136.19V41.2256ZM136.523 39.003L136.273 40.7527H137.398C138.065 40.7527 138.44 40.469 138.523 39.9015V39.8542C138.607 39.2868 138.315 39.0503 137.648 39.0503H136.523V39.003Z" fill="black"/>
<path d="M144.393 43.4482H143.702L144.439 39.0976H142.551C142.045 41.3202 141.63 42.4551 140.94 43.4482H140.203C140.572 42.8807 140.894 42.266 141.17 41.5093C141.446 40.7527 141.723 39.7597 141.953 38.5302H145.175L144.393 43.4482Z" fill="black"/>
<path d="M150.258 43.4482H149.561L149.933 41.3202H148.493L146.913 43.4482H146.169L147.889 41.1783C147.238 41.0365 146.913 40.6109 147.052 39.9961L147.099 39.807C147.238 38.9558 147.842 38.5302 148.957 38.5302H151.141L150.258 43.4482ZM150.305 39.003H149.05C148.307 39.003 147.842 39.2868 147.796 39.8542L147.749 40.0434C147.656 40.6109 147.982 40.8473 148.725 40.8473H150.026L150.305 39.003Z" fill="black"/>
<path d="M154.428 39.0976L153.68 43.4482H152.978L153.726 39.0976H152.135L152.229 38.5302H156.113L156.019 39.0976H154.428Z" fill="black"/>
<path d="M156.27 40.469H157.687C158.75 40.469 159.238 40.9892 159.06 41.8877L159.016 42.0768C158.839 42.9753 158.263 43.4482 157.245 43.4482H155.119L155.916 38.5302H156.58L156.27 40.469ZM158.396 41.8404C158.485 41.1783 158.175 40.8946 157.466 40.8946H156.182L155.827 42.928H157.112C157.82 42.928 158.263 42.6443 158.352 41.9822L158.396 41.8404Z" fill="black"/>
</svg>
